<svg xmlns="http://www.w3.org/2000/svg" version="1.1" xmlns:xlink="http://www.w3.org/1999/xlink" xmlns:svgjs="http://svgjs.com/svgjs" width="1920" height="1080" preserveAspectRatio="none" viewBox="0 0 1920 1080"><g mask="url(&quot;#SvgjsMask1026&quot;)" fill="none"><rect width="1920" height="1080" x="0" y="0" fill="rgba(18, 18, 18, 1)"></rect><path d="M0,795.721C156.41,787.043,311.876,773.907,450.624,701.184C598.073,623.9,759.67,528.772,811.277,370.498C862.233,214.221,766.619,52.801,712.662,-102.465C668.082,-230.747,620.907,-358.821,524.565,-454.538C432.43,-546.074,297.855,-564.537,184.238,-627.457C30.38,-712.661,-85.769,-901.601,-261.241,-889.706C-434.185,-877.983,-571.868,-720.651,-658.219,-570.35C-738.05,-431.398,-703.658,-262.532,-713.462,-102.58C-722.376,42.851,-750.889,184.951,-713.139,325.68C-670.394,485.034,-621.704,662.242,-483.948,753.039C-345.939,844.003,-165.036,804.878,0,795.721" fill="#0c0c0c"></path><path d="M1920 1794.8319999999999C2084.423 1787.216 2269.73 1928.065 2402.462 1830.726 2537.131 1731.967 2470.322 1513.548 2520.682 1354.3220000000001 2562.993 1220.546 2695.023 1110.317 2674.199 971.563 2653.386 832.88 2492.409 767.99 2415.126 650.971 2321.633 509.40700000000004 2325.113 291.836 2174.158 214.41700000000003 2024.58 137.70500000000004 1844.5529999999999 226.43499999999995 1683.913 275.962 1525.213 324.89099999999996 1348.318 365.59000000000003 1249.9180000000001 499.37 1153.2640000000001 630.777 1183.1680000000001 809.6859999999999 1171.656 972.404 1161.009 1122.89 1146.9589999999998 1269.658 1185.0929999999998 1415.621 1229.141 1584.22 1253.077 1796.883 1407.935 1876.789 1564.726 1957.693 1743.755 1802.995 1920 1794.8319999999999" fill="#181818"></path></g><defs><mask id="SvgjsMask1026"><rect width="1920" height="1080" fill="#ffffff"></rect></mask></defs></svg>