<svg xmlns="http://www.w3.org/2000/svg" version="1.1" xmlns:xlink="http://www.w3.org/1999/xlink" xmlns:svgjs="http://svgjs.com/svgjs" width="1980" height="1080" preserveAspectRatio="none" viewBox="0 0 1980 1080"><g mask="url(&quot;#SvgjsMask1017&quot;)" fill="none"><rect width="1980" height="1080" x="0" y="0" fill="rgba(18, 18, 18, 1)"></rect><path d="M 0,291 C 132,262.8 396,140 660,150 C 924,160 1056,334.8 1320,341 C 1584,347.2 1848,213 1980,181L1980 1080L0 1080z" fill="rgba(29, 29, 29, 1)"></path><path d="M 0,540 C 99,637.8 297,988.8 495,1029 C 693,1069.2 792,763.8 990,741 C 1188,718.2 1287,926.4 1485,915 C 1683,903.6 1881,730.2 1980,684L1980 1080L0 1080z" fill="rgba(33, 33, 33, 1)"></path></g><defs><mask id="SvgjsMask1017"><rect width="1980" height="1080" fill="#ffffff"></rect></mask></defs></svg>