<svg id="Capa_1" enable-background="new 0 0 512.013 512.013" height="512" viewBox="0 0 512.013 512.013" width="512" xmlns="http://www.w3.org/2000/svg" xmlns:xlink="http://www.w3.org/1999/xlink"><linearGradient id="SVGID_1_" gradientUnits="userSpaceOnUse" x1="256.006" x2="256.006" y1="512.006" y2=".006"><stop offset="0" stop-color="#5558ff"/><stop offset="1" stop-color="#00c0ff"/></linearGradient><g><g><g><path d="m491.32 183.123-330 135c-5.234 2.142-8.819 7.045-9.272 12.683-.452 5.638 2.305 11.051 7.13 14l97.822 59.779v92.421c0 6.457 4.131 12.188 10.257 14.23 6.098 2.033 12.853-.043 16.743-5.23l43.673-58.231 101.505 62.031c4.109 2.51 9.271 2.94 13.834.943 4.488-1.964 7.735-5.996 8.696-10.801l60-300c2.36-11.815-9.444-21.303-20.388-16.825zm-220.96 194.468-70.244-42.927 220.766-90.313zm16.64 74.415v-49.079l109.514-96.94c-6.821 9.094-103.127 137.503-109.514 146.019zm139.502 21.005-80.747-49.345 123.567-164.756zm-187.644-242.265c2.322-5.605 1.038-12.057-3.252-16.347l-20.8-20.8c16.338-20.958 25.194-46.596 25.194-73.593 0-66.168-53.832-120-120-120s-120 53.832-120 120 53.832 120 120 120h105c6.067 0 11.537-3.654 13.858-9.26zm-55.219-25.888 5.147 5.148h-68.786c-49.626 0-90-40.374-90-90s40.374-90 90-90 90 40.374 90 90c0 24.039-9.362 46.64-26.361 63.639-5.858 5.858-5.858 15.355 0 21.213z" fill="url(#SVGID_1_)"/></g></g></g></svg>