<svg id="visual" viewBox="0 0 900 450" width="900" height="450" xmlns="http://www.w3.org/2000/svg" xmlns:xlink="http://www.w3.org/1999/xlink" version="1.1"><rect x="0" y="0" width="900" height="450" fill="#242627"></rect><path d="M0 415L50 416.3C100 417.7 200 420.3 300 420.5C400 420.7 500 418.3 600 416.8C700 415.3 800 414.7 850 414.3L900 414L900 0L850 0C800 0 700 0 600 0C500 0 400 0 300 0C200 0 100 0 50 0L0 0Z" fill="#242627"></path><path d="M0 370L50 366.8C100 363.7 200 357.3 300 363.7C400 370 500 389 600 392C700 395 800 382 850 375.5L900 369L900 0L850 0C800 0 700 0 600 0C500 0 400 0 300 0C200 0 100 0 50 0L0 0Z" fill="#212324"></path><path d="M0 345L50 346.5C100 348 200 351 300 347.3C400 343.7 500 333.3 600 334.2C700 335 800 347 850 353L900 359L900 0L850 0C800 0 700 0 600 0C500 0 400 0 300 0C200 0 100 0 50 0L0 0Z" fill="#1e2021"></path><path d="M0 329L50 328.2C100 327.3 200 325.7 300 323.5C400 321.3 500 318.7 600 322.2C700 325.7 800 335.3 850 340.2L900 345L900 0L850 0C800 0 700 0 600 0C500 0 400 0 300 0C200 0 100 0 50 0L0 0Z" fill="#1c1e1f"></path><path d="M0 283L50 276.7C100 270.3 200 257.7 300 257.7C400 257.7 500 270.3 600 271.7C700 273 800 263 850 258L900 253L900 0L850 0C800 0 700 0 600 0C500 0 400 0 300 0C200 0 100 0 50 0L0 0Z" fill="#191b1c"></path><path d="M0 236L50 231.5C100 227 200 218 300 214.7C400 211.3 500 213.7 600 214.5C700 215.3 800 214.7 850 214.3L900 214L900 0L850 0C800 0 700 0 600 0C500 0 400 0 300 0C200 0 100 0 50 0L0 0Z" fill="#161819"></path><path d="M0 175L50 177.8C100 180.7 200 186.3 300 195.5C400 204.7 500 217.3 600 216.2C700 215 800 200 850 192.5L900 185L900 0L850 0C800 0 700 0 600 0C500 0 400 0 300 0C200 0 100 0 50 0L0 0Z" fill="#131617"></path><path d="M0 204L50 200.5C100 197 200 190 300 180.5C400 171 500 159 600 151.8C700 144.7 800 142.3 850 141.2L900 140L900 0L850 0C800 0 700 0 600 0C500 0 400 0 300 0C200 0 100 0 50 0L0 0Z" fill="#101314"></path><path d="M0 109L50 118.8C100 128.7 200 148.3 300 151C400 153.7 500 139.3 600 136.8C700 134.3 800 143.7 850 148.3L900 153L900 0L850 0C800 0 700 0 600 0C500 0 400 0 300 0C200 0 100 0 50 0L0 0Z" fill="#0c0f10"></path><path d="M0 111L50 114.8C100 118.7 200 126.3 300 124.7C400 123 500 112 600 111C700 110 800 119 850 123.5L900 128L900 0L850 0C800 0 700 0 600 0C500 0 400 0 300 0C200 0 100 0 50 0L0 0Z" fill="#070b0c"></path><path d="M0 71L50 65.5C100 60 200 49 300 46.5C400 44 500 50 600 58C700 66 800 76 850 81L900 86L900 0L850 0C800 0 700 0 600 0C500 0 400 0 300 0C200 0 100 0 50 0L0 0Z" fill="#020607"></path><path d="M0 38L50 39.5C100 41 200 44 300 47.3C400 50.7 500 54.3 600 55.3C700 56.3 800 54.7 850 53.8L900 53L900 0L850 0C800 0 700 0 600 0C500 0 400 0 300 0C200 0 100 0 50 0L0 0Z" fill="#000000"></path></svg>