<svg xmlns="http://www.w3.org/2000/svg" version="1.1" xmlns:xlink="http://www.w3.org/1999/xlink" xmlns:svgjs="http://svgjs.com/svgjs" width="1000" height="1000" preserveAspectRatio="none" viewBox="0 0 1000 1000"><g mask="url(&quot;#SvgjsMask1005&quot;)" fill="none"><rect width="1000" height="1000" x="0" y="0" fill="rgba(18, 18, 18, 1)"></rect><path d="M0,458.907C84.646,450.809,158.966,403.685,225.021,350.139C285.827,300.847,335.925,239.136,362.108,165.369C386.96,95.353,365.746,21.337,368.083,-52.922C371.019,-146.247,434.228,-252.954,377.606,-327.198C321.759,-400.426,205.602,-384.251,113.541,-386.684C39.259,-388.647,-27.875,-358.563,-99.779,-339.816C-174.386,-320.364,-255.291,-321.006,-316.778,-274.489C-385.534,-222.472,-438.576,-149.495,-461.285,-66.323C-485.575,22.639,-485.177,120.196,-447.526,204.378C-409.744,288.854,-334.943,350.265,-254.503,396.015C-176.972,440.11,-88.788,467.401,0,458.907" fill="#0c0c0c"></path><path d="M1000 1358.844C1076.57 1370.0819999999999 1154.209 1378.97 1227.413 1353.862 1313.263 1324.416 1402.695 1283.145 1448.7350000000001 1204.93 1496.149 1124.381 1488.408 1024.202 1475.9940000000001 931.562 1463.488 838.235 1456.0149999999999 724.838 1377.4479999999999 672.9390000000001 1297.007 619.802 1190.542 681.338 1094.156 679.3330000000001 1028.239 677.962 965.899 651.094 901.057 663.03 831.23 675.884 758.193 696.53 711.2719999999999 749.816 664.2280000000001 803.241 671.9580000000001 882.192 648.798 949.505 618.883 1036.45 515.8910000000001 1120.014 555.321 1203.078 594.966 1286.595 724.537 1262.301 811.788 1292.864 875.828 1315.296 932.864 1348.991 1000 1358.844" fill="#181818"></path></g><defs><mask id="SvgjsMask1005"><rect width="1000" height="1000" fill="#ffffff"></rect></mask></defs></svg>